<?xml version="1.0" encoding="UTF-8" standalone="no"?>
<!DOCTYPE svg PUBLIC "-//W3C//DTD SVG 1.1//EN" "http://www.w3.org/Graphics/SVG/1.1/DTD/svg11.dtd">
<svg version="1.1" xmlns="http://www.w3.org/2000/svg" xmlns:xlink="http://www.w3.org/1999/xlink" preserveAspectRatio="xMidYMid meet" viewBox="0 0 640 640" width="640" height="640"><defs><path d="M448.88 92.4C491.18 92.4 525.47 126.69 525.47 168.99C525.47 244.71 525.47 395.29 525.47 471.01C525.47 513.31 491.18 547.6 448.88 547.6C376.55 547.6 236.13 547.6 163.8 547.6C121.5 547.6 87.21 513.31 87.21 471.01C87.21 395.29 87.21 244.71 87.21 168.99C87.21 126.69 121.5 92.4 163.8 92.4C236.13 92.4 376.55 92.4 448.88 92.4Z" id="b2RWKYowtG"></path><path d="M282.88 236.75L306.34 236.75L306.34 287.64L282.88 287.64L282.88 236.75Z" id="b31YTBG447"></path><path d="M418.48 259.62C418.48 307.21 373.22 345.85 317.47 345.85C261.72 345.85 216.46 307.21 216.46 259.62C216.46 212.03 261.72 173.39 317.47 173.39C373.22 173.39 418.48 212.03 418.48 259.62Z" id="b4WQDkjDV1"></path><path d="M216.46 173.39L272.33 173.39L272.33 466.61L216.46 466.61L216.46 173.39Z" id="b1AHaHJvtc"></path><path d="M244.39 173.39L315.5 173.39L315.5 223.85L244.39 223.85L244.39 173.39Z" id="aaBS02yZi"></path><path d="M315.5 289.39L273.72 289.39L273.72 223.85L315.5 223.85L315.5 289.39Z" id="b4hgrZYvwK"></path><path d="M363.7 256.62C363.7 274.71 343.96 289.39 319.65 289.39C295.33 289.39 275.59 274.71 275.59 256.62C275.59 238.54 295.33 223.85 319.65 223.85C343.96 223.85 363.7 238.54 363.7 256.62Z" id="b2wob7SpfF"></path><path d="M238.74 295.39L321.15 295.39L321.15 345.85L238.74 345.85L238.74 295.39Z" id="a4yWkoM4A7"></path></defs><g><g><g><use xlink:href="#b2RWKYowtG" opacity="1" fill="#c4b6ab" fill-opacity="1"></use><g><use xlink:href="#b2RWKYowtG" opacity="1" fill-opacity="0" stroke="#1a1a1d" stroke-width="45" stroke-opacity="1"></use></g></g><g><use xlink:href="#b31YTBG447" opacity="1" fill="#c4b6ab" fill-opacity="1"></use></g><g><use xlink:href="#b4WQDkjDV1" opacity="1" fill="#1a1a1d" fill-opacity="1"></use></g><g><use xlink:href="#b1AHaHJvtc" opacity="1" fill="#1a1a1d" fill-opacity="1"></use></g><g><use xlink:href="#aaBS02yZi" opacity="1" fill="#1a1a1d" fill-opacity="1"></use></g><g><use xlink:href="#b4hgrZYvwK" opacity="1" fill="#c4b6ab" fill-opacity="1"></use></g><g><use xlink:href="#b2wob7SpfF" opacity="1" fill="#c4b6ab" fill-opacity="1"></use></g><g><use xlink:href="#a4yWkoM4A7" opacity="1" fill="#1a1a1d" fill-opacity="1"></use></g></g></g></svg>